<svg width="1280" height="493" xmlns="http://www.w3.org/2000/svg" xmlns:xlink="http://www.w3.org/1999/xlink" overflow="hidden"><defs><clipPath id="clip0"><rect x="0" y="0" width="1280" height="493"/></clipPath></defs><g clip-path="url(#clip0)"><rect x="0" y="0" width="1280" height="492.833" fill="#FFFFFF"/><path d="M70.2391 24.6211 176.906 24.6211 176.906 63.5413 70.2391 63.5413Z" fill-rule="evenodd"/><path d="M176.906 63.5413 283.572 63.5413 283.572 102.461 176.906 102.461Z" fill-rule="evenodd"/><path d="M283.572 102.461 390.239 102.461 390.239 141.382 283.572 141.382Z" fill-rule="evenodd"/><path d="M390.239 141.382 496.906 141.382 496.906 180.302 390.239 180.302Z" fill-rule="evenodd"/><path d="M496.906 180.302 603.572 180.302 603.572 219.222 496.906 219.222Z" fill-rule="evenodd"/><path d="M603.572 219.222 710.239 219.222 710.239 258.142 603.572 258.142Z" fill-rule="evenodd"/><path d="M710.239 258.142 816.906 258.142 816.906 297.062 710.239 297.062Z" fill-rule="evenodd"/><path d="M816.906 297.062 923.572 297.062 923.572 335.982 816.906 335.982Z" fill-rule="evenodd"/><path d="M176.906 23.9546 176.906 336.649" stroke="#000000" stroke-width="1.33333" stroke-linejoin="round" stroke-miterlimit="10" fill="none" fill-rule="evenodd"/><path d="M283.572 23.9546 283.572 336.649" stroke="#000000" stroke-width="1.33333" stroke-linejoin="round" stroke-miterlimit="10" fill="none" fill-rule="evenodd"/><path d="M390.239 23.9546 390.239 336.649" stroke="#000000" stroke-width="1.33333" stroke-linejoin="round" stroke-miterlimit="10" fill="none" fill-rule="evenodd"/><path d="M496.906 23.9546 496.906 336.649" stroke="#000000" stroke-width="1.33333" stroke-linejoin="round" stroke-miterlimit="10" fill="none" fill-rule="evenodd"/><path d="M603.572 23.9546 603.572 336.649" stroke="#000000" stroke-width="1.33333" stroke-linejoin="round" stroke-miterlimit="10" fill="none" fill-rule="evenodd"/><path d="M710.239 23.9546 710.239 336.649" stroke="#000000" stroke-width="1.33333" stroke-linejoin="round" stroke-miterlimit="10" fill="none" fill-rule="evenodd"/><path d="M816.906 23.9546 816.906 336.649" stroke="#000000" stroke-width="1.33333" stroke-linejoin="round" stroke-miterlimit="10" fill="none" fill-rule="evenodd"/><path d="M69.5724 63.5413 924.239 63.5413" stroke="#000000" stroke-width="1.33333" stroke-linejoin="round" stroke-miterlimit="10" fill="none" fill-rule="evenodd"/><path d="M69.5724 102.461 924.239 102.461" stroke="#000000" stroke-width="1.33333" stroke-linejoin="round" stroke-miterlimit="10" fill="none" fill-rule="evenodd"/><path d="M69.5724 141.382 924.239 141.382" stroke="#000000" stroke-width="1.33333" stroke-linejoin="round" stroke-miterlimit="10" fill="none" fill-rule="evenodd"/><path d="M69.5724 180.302 924.239 180.302" stroke="#000000" stroke-width="1.33333" stroke-linejoin="round" stroke-miterlimit="10" fill="none" fill-rule="evenodd"/><path d="M69.5724 219.222 924.239 219.222" stroke="#000000" stroke-width="1.33333" stroke-linejoin="round" stroke-miterlimit="10" fill="none" fill-rule="evenodd"/><path d="M69.5724 258.142 924.239 258.142" stroke="#000000" stroke-width="1.33333" stroke-linejoin="round" stroke-miterlimit="10" fill="none" fill-rule="evenodd"/><path d="M69.5724 297.062 924.239 297.062" stroke="#000000" stroke-width="1.33333" stroke-linejoin="round" stroke-miterlimit="10" fill="none" fill-rule="evenodd"/><path d="M70.2391 23.9546 70.2391 336.649" stroke="#000000" stroke-width="1.33333" stroke-linejoin="round" stroke-miterlimit="10" fill="none" fill-rule="evenodd"/><path d="M923.572 23.9546 923.572 336.649" stroke="#000000" stroke-width="1.33333" stroke-linejoin="round" stroke-miterlimit="10" fill="none" fill-rule="evenodd"/><path d="M69.5724 24.6211 924.239 24.6211" stroke="#000000" stroke-width="1.33333" stroke-linejoin="round" stroke-miterlimit="10" fill="none" fill-rule="evenodd"/><path d="M69.5724 335.982 924.239 335.982" stroke="#000000" stroke-width="1.33333" stroke-linejoin="round" stroke-miterlimit="10" fill="none" fill-rule="evenodd"/><path d="M924.5 350.454C924.5 366.721 922.301 379.908 919.589 379.908L502.411 379.907C499.699 379.907 497.5 393.094 497.5 409.362 497.5 393.094 495.301 379.907 492.589 379.907L75.4107 379.907C72.6986 379.907 70.5 366.72 70.5 350.453" stroke="#4472C4" stroke-width="0.666441" stroke-miterlimit="8" fill="none" fill-rule="evenodd"/><text font-family="Agency FB,Agency FB_MSFontService,sans-serif" font-weight="400" font-stretch="condensed" font-size="24" transform="matrix(1 0 0 0.999662 410.323 440)">Total instances = n = 8</text><path d="M941.5 47.1508 1027.21 47.1509 1027.21 47.8173 941.5 47.8172ZM1025.88 43.4855 1033.88 47.4841 1025.88 51.4827Z" fill="#4472C4"/><path d="M942.5 83.1386 1028.21 83.1387 1028.21 83.8052 942.5 83.8051ZM1026.88 79.4733 1034.88 83.4719 1026.88 87.4706Z" fill="#4472C4"/><path d="M946.5 119.126 1032.21 119.127 1032.21 119.793 946.5 119.793ZM1030.88 115.461 1038.88 119.46 1030.88 123.458Z" fill="#4472C4"/><path d="M946.5 161.112 1032.21 161.112 1032.21 161.779 946.5 161.779ZM1030.88 157.447 1038.88 161.446 1030.88 165.444Z" fill="#4472C4"/><path d="M946.5 201.099 1032.21 201.099 1032.21 201.765 946.5 201.765ZM1030.88 197.433 1038.88 201.432 1030.88 205.431Z" fill="#4472C4"/><path d="M946.5 243.085 1032.21 243.085 1032.21 243.751 946.5 243.751ZM1030.88 239.419 1038.88 243.418 1030.88 247.417Z" fill="#4472C4"/><path d="M946.5 279.072 1032.21 279.072 1032.21 279.739 946.5 279.739ZM1030.88 275.407 1038.88 279.406 1030.88 283.404Z" fill="#4472C4"/><path d="M946.5 316.06 1032.21 316.06 1032.21 316.726 946.5 316.726ZM1030.88 312.395 1038.88 316.393 1030.88 320.392Z" fill="#4472C4"/><text font-family="Agency FB,Agency FB_MSFontService,sans-serif" font-weight="400" font-stretch="condensed" font-size="24" transform="matrix(1 0 0 0.999662 1088.05 56)">Iteration 1<tspan font-size="24" x="0.0649414" y="42.0142">Iteration 2</tspan><tspan font-size="24" x="-2.66626" y="76.0257">Iteration 3</tspan><tspan font-size="24" x="0.148315" y="117.04">Iteration 4</tspan><tspan font-size="24" x="-0.0844727" y="157.053">Iteration 5</tspan><tspan font-size="24" x="-0.150635" y="193.065">Iteration 6</tspan><tspan font-size="24" x="0.599365" y="228.077">Iteration 7</tspan><tspan font-size="24" x="-0.233887" y="264.089">Iteration 8</tspan></text><path d="M739.346 387.181 841.334 387.181 841.334 426.101 739.346 426.101Z" fill="#FFFFFF" fill-rule="evenodd"/><path d="M739.346 386.514 739.346 426.767" stroke="#000000" stroke-width="1.33333" stroke-linejoin="round" stroke-miterlimit="10" fill="none" fill-rule="evenodd"/><path d="M841.334 386.514 841.334 426.767" stroke="#000000" stroke-width="1.33333" stroke-linejoin="round" stroke-miterlimit="10" fill="none" fill-rule="evenodd"/><path d="M738.68 387.181 842 387.181" stroke="#000000" stroke-width="1.33333" stroke-linejoin="round" stroke-miterlimit="10" fill="none" fill-rule="evenodd"/><path d="M738.68 426.101 842 426.101" stroke="#000000" stroke-width="1.33333" stroke-linejoin="round" stroke-miterlimit="10" fill="none" fill-rule="evenodd"/><path d="M845.5 410.028 934.833 410.028 934.833 410.695 845.5 410.695ZM933.5 406.363 941.5 410.361 933.5 414.36Z" fill="#4472C4"/><text font-family="Agency FB,Agency FB_MSFontService,sans-serif" font-weight="400" font-stretch="condensed" font-size="24" transform="matrix(1 0 0 0.999662 1011.37 419)">Train split</text><path d="M739.346 432.004 841.333 432.004 841.333 470.924 739.346 470.924Z" fill-rule="evenodd"/><path d="M739.346 431.338 739.346 471.591" stroke="#000000" stroke-width="1.33333" stroke-linejoin="round" stroke-miterlimit="10" fill="none" fill-rule="evenodd"/><path d="M841.333 431.338 841.333 471.591" stroke="#000000" stroke-width="1.33333" stroke-linejoin="round" stroke-miterlimit="10" fill="none" fill-rule="evenodd"/><path d="M738.679 432.004 842 432.004" stroke="#000000" stroke-width="1.33333" stroke-linejoin="round" stroke-miterlimit="10" fill="none" fill-rule="evenodd"/><path d="M738.679 470.924 842 470.924" stroke="#000000" stroke-width="1.33333" stroke-linejoin="round" stroke-miterlimit="10" fill="none" fill-rule="evenodd"/><path d="M845.5 455.013 934.833 455.013 934.833 455.679 845.5 455.679ZM933.5 451.348 941.5 455.346 933.5 459.345Z" fill="#4472C4"/><text font-family="Agency FB,Agency FB_MSFontService,sans-serif" font-weight="400" font-stretch="condensed" font-size="24" transform="matrix(1 0 0 0.999662 1014.62 464)">Test split</text></g></svg>